<?xml version="1.0" standalone="no"?>
<!DOCTYPE svg PUBLIC "-//W3C//DTD SVG 20010904//EN"
 "http://www.w3.org/TR/2001/REC-SVG-20010904/DTD/svg10.dtd">
<svg version="1.0" xmlns="http://www.w3.org/2000/svg"
 width="1025.000000pt" height="1025.000000pt" viewBox="0 0 1025.000000 1025.000000"
 preserveAspectRatio="xMidYMid meet">
<metadata>
Created by potrace 1.14, written by Peter Selinger 2001-2017
</metadata>
<g transform="translate(0.000000,1025.000000) scale(0.100000,-0.100000)"
fill="#000000" stroke="none">
<path d="M2527 10244 c-1 -1 -36 -5 -77 -8 -96 -8 -149 -14 -180 -23 -14 -3
-34 -7 -45 -8 -11 -1 -45 -7 -75 -14 -30 -6 -64 -13 -75 -15 -176 -35 -494
-159 -700 -275 -69 -38 -285 -180 -300 -197 -5 -6 -28 -24 -50 -40 -96 -70
-313 -285 -432 -431 -10 -12 -26 -30 -35 -41 -9 -11 -21 -29 -27 -40 -6 -11
-17 -27 -23 -34 -21 -22 -58 -77 -58 -84 0 -4 -9 -17 -19 -28 -22 -24 -63 -96
-119 -206 -21 -41 -44 -86 -52 -100 -8 -14 -15 -27 -15 -30 0 -3 -14 -39 -31
-80 -39 -94 -47 -114 -49 -120 0 -3 -17 -57 -37 -120 -32 -102 -44 -148 -64
-240 -12 -57 -14 -67 -18 -100 -3 -19 -8 -48 -10 -65 -12 -72 -17 -127 -23
-230 -7 -131 -6 -5165 1 -5245 2 -30 8 -75 11 -100 4 -25 8 -56 9 -70 2 -14 6
-34 9 -45 3 -11 8 -36 11 -55 13 -92 71 -304 116 -425 37 -101 132 -307 167
-363 18 -29 33 -55 33 -58 0 -17 185 -287 223 -326 9 -9 17 -19 17 -21 0 -7
113 -130 180 -197 79 -78 207 -192 264 -236 28 -20 55 -41 60 -46 43 -37 287
-182 396 -234 169 -82 211 -99 360 -146 52 -16 102 -32 110 -35 8 -3 26 -8 40
-10 14 -2 48 -10 75 -18 54 -15 113 -26 160 -31 17 -1 30 -3 30 -4 0 -4 97
-16 218 -27 34 -3 224 -5 422 -5 198 1 385 1 415 1 30 0 66 0 80 1 14 0 1008
3 2210 4 1997 3 2254 6 2300 23 8 3 34 7 57 8 24 2 52 6 62 10 11 3 30 8 43
10 13 3 44 9 69 15 26 6 53 13 60 14 8 1 34 9 59 16 25 7 50 14 55 16 16 3
168 55 193 65 12 5 32 13 45 18 31 13 308 149 332 164 11 6 23 17 27 22 4 6 8
7 8 2 0 -4 35 17 78 46 42 29 100 69 127 88 28 19 53 37 56 42 3 4 20 18 39
32 32 23 211 186 234 213 6 6 35 38 65 70 53 56 162 188 191 232 8 12 29 41
45 64 46 64 157 253 171 291 4 11 11 22 15 25 11 8 104 229 128 305 12 39 26
79 31 90 12 28 42 135 46 165 2 14 10 52 18 85 8 33 17 76 20 95 2 19 7 44 9
55 6 25 17 138 24 230 8 120 9 5089 1 5113 -5 13 -4 22 3 22 6 0 7 5 4 11 -4
5 -8 37 -10 70 -4 64 -15 171 -21 204 -2 10 -6 35 -9 55 -3 19 -12 64 -20 100
-8 36 -17 74 -18 85 -2 11 -12 47 -22 80 -9 33 -18 65 -19 70 -2 12 -35 113
-43 135 -4 8 -7 17 -8 20 -4 11 -26 66 -34 85 -5 11 -17 38 -26 60 -25 57 -89
184 -114 225 -11 19 -25 44 -30 55 -9 21 -159 246 -170 255 -3 3 -22 25 -41
50 -32 42 -71 87 -130 150 -14 15 -39 42 -56 61 -77 84 -285 259 -389 328 -38
25 -76 51 -83 58 -6 6 -21 15 -32 18 -11 3 -20 11 -20 16 0 6 -4 7 -10 4 -5
-3 -10 -2 -10 3 0 5 -8 12 -17 15 -10 3 -56 27 -103 52 -90 49 -278 134 -310
140 -11 2 -26 7 -33 12 -6 4 -14 8 -17 8 -3 1 -36 12 -75 25 -38 13 -77 25
-85 25 -8 1 -23 5 -32 9 -10 5 -29 9 -43 10 -14 0 -25 4 -25 7 0 3 -6 6 -12 6
-7 0 -60 10 -118 21 -58 11 -130 24 -160 28 -30 3 -71 9 -90 11 -35 5 -5278
12 -5283 7z m4798 -1047 c17 -2 44 -7 60 -10 17 -4 44 -9 60 -12 45 -7 66 -12
110 -23 22 -6 51 -13 65 -16 23 -4 43 -10 80 -23 8 -4 24 -8 35 -10 11 -1 29
-7 40 -12 11 -6 59 -24 108 -42 48 -18 87 -36 87 -41 0 -4 8 -8 18 -8 30 -1
342 -176 342 -192 0 -4 5 -8 10 -8 12 0 133 -92 212 -161 76 -67 173 -164 228
-229 25 -29 50 -58 56 -64 20 -21 146 -201 161 -231 9 -16 19 -32 22 -35 6 -5
19 -29 78 -140 16 -30 44 -91 63 -135 18 -44 39 -93 46 -110 7 -16 16 -43 20
-60 4 -16 11 -35 16 -41 5 -7 8 -16 7 -20 -2 -5 5 -34 15 -65 9 -31 19 -66 21
-78 2 -13 6 -30 9 -39 3 -9 8 -34 12 -56 3 -21 8 -48 11 -60 2 -11 6 -37 8
-56 2 -19 7 -55 11 -80 9 -58 11 -4009 2 -4115 -4 -44 -9 -91 -12 -105 -2 -14
-7 -43 -10 -65 -8 -48 -14 -80 -16 -80 -1 0 -3 -9 -5 -20 -1 -11 -5 -32 -9
-47 -3 -16 -8 -39 -11 -53 -11 -50 -75 -235 -111 -322 -55 -130 -169 -339
-217 -398 -4 -5 -26 -35 -48 -65 -42 -58 -94 -124 -119 -150 -8 -9 -37 -41
-65 -71 -59 -64 -175 -172 -229 -214 -22 -16 -47 -37 -55 -45 -9 -8 -39 -30
-66 -47 -28 -18 -56 -37 -63 -43 -60 -51 -352 -198 -487 -245 -44 -15 -87 -30
-95 -33 -21 -7 -30 -10 -75 -22 -67 -18 -79 -21 -107 -25 -15 -2 -32 -6 -37
-9 -5 -3 -25 -8 -45 -10 -34 -5 -60 -9 -131 -21 -95 -16 -408 -19 -2133 -18
-1753 1 -2012 3 -2097 18 -16 2 -48 7 -70 9 -22 3 -42 5 -45 6 -3 2 -8 2 -11
2 -3 -1 -30 5 -60 13 -29 8 -55 12 -57 10 -2 -2 -16 1 -31 7 -14 5 -36 12 -48
14 -32 6 -235 75 -258 87 -11 6 -25 12 -32 13 -26 4 -208 96 -295 148 -120 72
-129 79 -146 93 -7 7 -17 13 -21 13 -4 0 -16 8 -27 18 -10 9 -42 35 -69 56
-28 22 -57 46 -65 53 -30 25 -230 222 -230 227 0 2 -13 18 -30 36 -31 33 -111
138 -175 230 -74 106 -209 388 -259 540 -25 80 -49 155 -51 167 -3 13 -7 33
-10 45 -9 41 -15 73 -20 107 -3 19 -7 37 -9 40 -17 28 -21 430 -21 2206 0
1845 3 2168 21 2197 3 5 7 23 10 41 2 18 6 43 9 57 13 60 16 76 19 85 1 6 8
30 15 55 47 173 181 490 228 538 7 7 13 18 13 23 0 6 11 25 25 43 14 18 25 36
25 40 0 6 98 145 110 156 3 3 21 25 39 50 50 66 286 299 356 350 33 25 62 47
65 50 3 3 32 23 65 45 33 22 62 43 65 46 3 3 12 8 20 12 8 4 38 20 65 37 44
26 251 132 265 136 3 0 12 3 20 7 91 35 267 92 310 101 14 2 48 10 75 16 28 6
59 14 70 16 11 3 40 7 65 9 25 3 65 9 90 13 43 8 4164 7 4225 -1z"/>
<path d="M3257 8614 c-1 -1 -33 -4 -72 -7 -78 -7 -243 -39 -290 -57 -16 -6
-31 -11 -32 -11 -2 1 -4 1 -5 0 -2 0 -10 -2 -18 -4 -75 -18 -380 -160 -380
-177 0 -4 -5 -8 -11 -8 -10 0 -89 -52 -115 -75 -6 -5 -26 -21 -45 -35 -55 -41
-161 -141 -209 -198 -25 -29 -52 -61 -61 -71 -34 -36 -139 -200 -184 -285 -65
-123 -122 -279 -151 -407 -10 -46 -12 -56 -19 -99 -11 -66 -14 -94 -20 -210
-6 -97 -9 -482 -5 -505 1 -5 1 -14 0 -20 -3 -12 -2 -1578 1 -1585 1 -3 0 -9
-1 -15 -2 -12 -2 -1076 0 -1090 2 -5 1 -14 0 -20 -5 -23 -2 -517 4 -600 9
-127 13 -167 20 -201 3 -16 9 -40 12 -54 3 -14 8 -38 10 -54 9 -46 72 -229
103 -299 127 -283 333 -529 596 -712 97 -68 296 -175 325 -175 9 0 20 -4 25
-9 8 -7 120 -47 160 -57 82 -21 144 -35 169 -39 17 -2 47 -6 66 -10 80 -13
250 -14 2070 -14 1825 0 1957 1 2039 14 20 3 52 8 71 10 76 10 214 46 294 76
31 11 57 20 58 19 2 -1 36 15 75 34 40 20 77 36 81 36 5 0 15 7 22 15 7 9 15
13 18 10 3 -3 20 6 38 20 18 14 35 25 38 25 7 0 133 87 156 107 8 7 37 32 64
55 125 108 232 232 328 378 48 74 141 262 163 330 10 30 20 60 24 65 3 6 7 19
8 30 2 11 6 27 10 35 3 8 8 24 10 35 2 11 9 38 15 60 6 22 12 56 13 75 2 19 4
35 5 35 2 0 5 20 8 45 9 68 8 4048 0 4100 -4 25 -10 56 -13 70 -3 14 -8 41
-11 60 -3 19 -9 46 -14 60 -4 14 -11 39 -15 55 -17 77 -129 345 -147 353 -5 2
-8 8 -8 13 0 12 -72 129 -119 192 -56 76 -254 277 -321 327 -34 25 -68 51 -75
58 -7 6 -18 12 -22 12 -5 0 -18 8 -29 18 -36 32 -267 151 -324 167 -3 0 -49
15 -102 33 -54 17 -126 36 -160 43 -67 12 -80 14 -168 25 -43 6 -3947 13
-3953 8z m4361 -917 c91 -32 180 -118 216 -207 10 -25 21 -52 25 -60 4 -8 7
-54 6 -102 -2 -76 -6 -96 -35 -155 -37 -77 -112 -155 -175 -183 -80 -35 -97
-40 -106 -35 -5 4 -9 2 -9 -2 0 -17 -174 -1 -197 19 -7 6 -13 8 -13 4 0 -9
-92 50 -120 77 -31 31 -60 65 -60 73 0 3 -9 19 -21 35 -11 16 -18 29 -14 29 3
0 0 10 -6 22 -20 38 -19 194 2 251 52 142 177 243 314 255 33 2 61 5 63 7 5 4
90 -13 130 -28z m-2170 -721 c76 -8 132 -15 162 -23 27 -6 42 -9 80 -16 49 -8
258 -71 305 -92 17 -7 53 -22 81 -33 27 -11 67 -30 87 -41 20 -11 37 -17 37
-13 0 4 4 2 8 -3 4 -6 32 -23 62 -39 55 -29 191 -115 200 -126 3 -4 28 -22 55
-40 62 -42 102 -78 231 -207 121 -121 190 -205 273 -334 34 -52 65 -98 69
-104 36 -46 179 -377 197 -457 2 -13 13 -53 24 -91 11 -37 22 -84 26 -105 3
-20 8 -50 11 -67 53 -285 34 -657 -48 -940 -11 -38 -21 -74 -22 -80 -4 -26
-76 -203 -119 -295 -28 -59 -147 -261 -163 -278 -8 -7 -21 -26 -31 -42 -9 -17
-21 -30 -25 -30 -4 0 -8 -5 -8 -11 0 -6 -6 -16 -12 -24 -7 -7 -33 -37 -58 -66
-70 -82 -208 -216 -285 -277 -38 -31 -72 -58 -75 -61 -3 -4 -12 -10 -22 -16
-9 -5 -47 -31 -85 -56 -181 -122 -433 -235 -638 -285 -97 -24 -135 -31 -135
-28 0 3 -6 2 -12 -3 -14 -8 -11 -8 -88 -17 -202 -26 -461 -26 -610 -1 -14 2
-41 6 -60 9 -56 9 -94 16 -112 22 -10 3 -30 7 -45 10 -16 3 -66 17 -113 31
-47 15 -89 28 -95 29 -22 4 -224 94 -290 129 -293 155 -600 428 -770 685 -17
25 -32 47 -35 50 -26 24 -153 270 -192 370 -14 36 -29 74 -33 85 -5 11 -9 23
-10 28 -2 4 -4 9 -5 12 -1 3 -3 8 -4 13 -2 7 -26 87 -32 107 -17 54 -51 229
-61 315 -10 83 -10 414 -1 501 7 63 31 191 52 284 32 138 188 521 218 533 4 2
8 8 8 13 0 8 72 121 127 199 36 51 152 187 210 245 114 116 209 193 343 281
41 27 77 52 78 57 2 4 7 7 11 7 4 0 44 20 89 44 44 24 83 42 85 40 2 -3 10 2
17 11 7 8 20 15 29 15 9 0 21 4 27 8 14 12 185 77 229 87 6 1 17 5 25 8 17 6
64 18 95 24 11 2 38 8 60 14 49 13 101 21 240 35 33 4 61 7 62 8 5 3 333 -3
381 -8z"/>
<path d="M5157 6394 c-2 -2 -32 -5 -67 -8 -202 -14 -391 -67 -585 -164 -80
-40 -221 -128 -251 -156 -6 -6 -28 -24 -50 -41 -93 -73 -233 -232 -311 -354
-37 -57 -133 -242 -133 -256 0 -4 -6 -21 -14 -38 -28 -62 -71 -220 -80 -292
-3 -22 -9 -65 -12 -95 -9 -65 -9 -264 -1 -335 13 -116 21 -155 48 -250 16 -55
31 -104 32 -110 2 -5 9 -20 15 -32 7 -13 10 -23 7 -23 -3 0 0 -10 7 -22 7 -13
13 -25 13 -28 3 -15 53 -112 80 -155 17 -27 34 -57 37 -66 10 -25 165 -216
217 -267 90 -87 299 -245 313 -236 3 2 10 -1 14 -7 16 -27 285 -137 399 -164
124 -29 272 -47 375 -47 61 1 199 10 216 15 17 5 40 9 140 22 50 7 274 89 357
132 87 44 244 146 303 195 37 32 153 147 189 188 58 67 205 285 205 305 0 2
16 37 35 78 19 41 38 89 41 106 4 17 11 31 17 31 6 0 8 3 4 6 -3 3 1 23 8 45
8 21 12 39 9 39 -2 0 0 8 5 18 5 9 12 33 15 52 3 19 12 71 20 114 14 79 15
368 2 446 -4 19 -8 49 -11 65 -2 17 -4 30 -5 30 -1 0 -3 9 -5 20 -38 205 -164
469 -315 656 -181 225 -448 410 -725 501 -59 19 -74 23 -115 32 -11 3 -23 7
-28 9 -4 3 -27 8 -52 11 -25 3 -55 8 -68 11 -52 10 -288 25 -295 19z"/>
</g>
</svg>
